<?xml version="1.0" encoding="UTF-8"?>
<svg id="LOGOS" xmlns="http://www.w3.org/2000/svg" viewBox="0 0 780 270">
  <defs>
    <style>
      .cls-1 {
        fill: #226fbc;
      }

      .cls-1, .cls-2 {
        stroke-width: 0px;
      }

      .cls-2 {
        fill: #212427;
      }
    </style>
  </defs>
  <path class="cls-1" d="m180,135c0-6.29-5.16-11.97-13.48-16.05-3.23-16.92-11.42-28.95-21.02-28.95-3.79,0-7.37,1.89-10.5,5.2-3.14-3.32-6.71-5.2-10.5-5.2-9.6,0-17.79,12.02-21.02,28.95-8.32,4.08-13.48,9.77-13.48,16.05s5.16,11.97,13.48,16.05c3.23,16.92,11.42,28.95,21.02,28.95,3.79,0,7.36-1.89,10.5-5.2,3.13,3.32,6.71,5.2,10.5,5.2,9.6,0,17.79-12.02,21.02-28.95,8.32-4.08,13.48-9.77,13.48-16.05Zm-34.5-40c5.89,0,12.23,8.33,15.42,21.61-4.96-1.75-10.65-3.02-16.8-3.65-1.51-5.38-3.56-10.07-6.01-13.79,2.37-2.68,4.92-4.17,7.39-4.17Zm17.5,40c0,4.49-.34,8.71-.94,12.62-4.59,1.93-10.24,3.44-16.7,4.23,1.05-5.21,1.64-10.89,1.64-16.85s-.58-11.65-1.64-16.85c6.46.8,12.11,2.3,16.7,4.23.6,3.91.94,8.13.94,12.62Zm-28,17.5c-1.77,0-3.48-.07-5.17-.17-1.15-5.14-1.83-10.96-1.83-17.33s.69-12.19,1.83-17.33c1.68-.1,3.4-.17,5.17-.17s3.48.07,5.17.17c1.15,5.14,1.83,10.96,1.83,17.33s-.69,12.19-1.83,17.33c-1.68.1-3.4.17-5.17.17Zm3.82,4.91c-1.08,3.45-2.38,6.49-3.82,9.02-1.45-2.53-2.74-5.57-3.82-9.02,1.26.05,2.53.09,3.82.09s2.56-.03,3.82-.09Zm-31.82-22.41c0-4.49.34-8.71.94-12.62,4.59-1.93,10.24-3.44,16.7-4.23-1.05,5.21-1.64,10.89-1.64,16.85s.58,11.65,1.64,16.85c-6.46-.8-12.11-2.3-16.7-4.23-.6-3.91-.94-8.13-.94-12.62Zm24.18-22.41c1.08-3.45,2.38-6.49,3.82-9.02,1.45,2.53,2.74,5.57,3.82,9.02-1.26-.05-2.53-.09-3.82-.09s-2.56.03-3.82.09Zm-6.68-17.59c2.47,0,5.02,1.49,7.39,4.17-2.44,3.72-4.49,8.41-6,13.79-6.16.63-11.85,1.9-16.8,3.65,3.19-13.28,9.53-21.61,15.42-21.61Zm-29.5,40c0-3.36,2.75-6.87,7.55-9.87-.36,3.18-.55,6.47-.55,9.87s.19,6.69.55,9.87c-4.8-2.99-7.55-6.5-7.55-9.87Zm29.5,40c-5.89,0-12.23-8.33-15.42-21.61,4.96,1.75,10.65,3.02,16.8,3.65,1.51,5.38,3.56,10.07,6,13.79-2.37,2.68-4.92,4.17-7.39,4.17Zm21,0c-2.47,0-5.02-1.49-7.39-4.17,2.44-3.72,4.49-8.41,6.01-13.79,6.16-.63,11.85-1.9,16.8-3.65-3.19,13.28-9.53,21.61-15.42,21.61Zm21.95-30.13c.36-3.18.55-6.47.55-9.87s-.19-6.69-.55-9.87c4.8,2.99,7.55,6.5,7.55,9.87s-2.75,6.87-7.55,9.87Z"/>
  <g>
    <g>
      <path class="cls-2" d="m313.04,163.76l-2.72-43.08-14.98,41.53h-9l-12.96-39.97-3.57,41.53h-10.32l5.9-57.44h12.81l13.27,42.15,14.83-42.15h13.43l4.35,57.44h-11.02Z"/>
      <path class="cls-2" d="m207,135.66c0-20.18,13.74-30.43,29.73-30.43,6.68,0,12.34,1.4,16.61,3.8l-1.71,8.07c-4.19-1.94-8.69-3.03-14.9-3.03-10.94,0-18.08,7.76-18.08,21.03s6.99,20.8,17.77,20.8c5.59,0,9.78-1.16,14.2-3.65l1.94,7.84c-5.98,3.34-11.72,4.73-18.63,4.73-14.98,0-26.93-8.85-26.93-29.18Z"/>
    </g>
    <path class="cls-2" d="m354,160.42l2.64-7.76c4.66,2.33,9.32,3.26,13.66,3.26,6.44,0,10.25-2.87,10.25-7.22s-2.79-6.75-11.02-10.87c-7.53-3.65-13.04-7.53-13.04-16.3,0-9.47,8.15-16.3,19.87-16.3,5.04,0,9.94,1.01,13.82,3.18l-2.25,7.68c-3.34-1.32-7.29-2.02-11.02-2.02-5.2,0-9.16,2.41-9.16,6.29s2.56,6.75,8.85,9.7c9.78,4.66,15.37,8.93,15.37,17.23,0,11.25-9.62,17.54-22.28,17.54-5.36,0-11.64-1.4-15.68-4.42Z"/>
    <path class="cls-2" d="m439.26,143.58c0,14.13-7.92,21.42-20.41,21.42s-20.49-7.3-20.49-21.42,7.92-21.42,20.49-21.42,20.41,7.29,20.41,21.42Zm-11.02,0c0-9.08-3.42-13.04-9.39-13.04s-9.47,3.96-9.47,13.04,3.42,13.04,9.47,13.04,9.39-3.96,9.39-13.04Z"/>
    <path class="cls-2" d="m447.16,105.78l10.94-.78v58.76h-10.94v-57.98Z"/>
    <path class="cls-2" d="m503.83,122.85v40.9h-10.87v-3.34c-3.73,2.72-7.92,4.11-12.03,4.11-8.38,0-13.04-4.19-13.74-12.26-.15-1.79-.15-4.11-.15-6.75v-21.89l10.94-.78v23.75c0,6.91,2.25,9.55,7.29,9.55,2.72,0,5.36-1.17,7.68-3.49v-29.03l10.87-.78Z"/>
    <path class="cls-2" d="m538.99,155.76l1.16,6.75c-2.95,1.4-6.91,2.41-11.41,2.41-7.14,0-10.4-3.57-10.87-8.69-.23-2.56-.31-4.66-.31-8.62v-16.45h-5.82v-7.92h5.82v-8.54l10.94-2.72v11.26h11.64l-1.09,7.92h-10.56v17c0,6.36,1.32,8.3,5.98,8.3,1.47,0,2.72-.23,4.5-.7Z"/>
    <path class="cls-2" d="m547.85,123.47l10.94-.78v41.06h-10.94v-40.28Zm.08-17.08c2.56-.54,8.3-.54,10.87,0v9.55c-2.56.47-8.3.47-10.87,0v-9.55Z"/>
    <path class="cls-2" d="m608.08,143.58c0,14.13-7.92,21.42-20.41,21.42s-20.49-7.3-20.49-21.42,7.92-21.42,20.49-21.42,20.41,7.29,20.41,21.42Zm-11.02,0c0-9.08-3.42-13.04-9.39-13.04s-9.47,3.96-9.47,13.04,3.42,13.04,9.47,13.04,9.39-3.96,9.39-13.04Z"/>
    <path class="cls-2" d="m653.27,140.86v22.9h-10.94v-23.67c0-6.91-2.1-9.55-7.53-9.55-2.64,0-5.2,1.17-7.45,3.26v29.96h-10.94v-40.28l10.94-.78v3.49c3.73-2.56,7.84-4.04,12.03-4.04,8.38,0,13.04,3.88,13.74,11.95.15,1.79.15,4.11.15,6.75Z"/>
    <path class="cls-2" d="m660.27,160.96l2.25-7.14c3.57,2.02,7.06,3.11,11.41,3.11,3.72,0,5.36-1.55,5.36-4.11s-1.63-4.11-6.83-6.36c-6.13-2.72-10.32-5.67-10.32-12.5,0-7.68,6.75-11.8,14.98-11.8,5.04,0,8.69,1.09,11.72,3.03l-1.63,7.06c-2.79-1.47-5.74-2.17-9.55-2.17-3.18,0-4.89,1.32-4.89,3.57,0,2.56,2.56,4.04,6.83,5.98,7.06,3.03,10.4,6.44,10.4,12.88,0,8.46-7.14,12.34-15.99,12.34-5.51,0-10.32-1.32-13.74-3.88Z"/>
  </g>
</svg>