<?xml version="1.0" encoding="UTF-8"?>
<svg id="LOGOS" xmlns="http://www.w3.org/2000/svg" viewBox="0 0 680 380">
  <defs>
    <style>
      .cls-1 {
        fill: #226fbc;
      }

      .cls-1, .cls-2 {
        stroke-width: 0px;
      }

      .cls-2 {
        fill: #e6e6e9;
      }
    </style>
  </defs>
  <path class="cls-1" d="m396.94,133.58c0-6.51-5.35-12.39-13.95-16.62-3.35-17.52-11.82-29.97-21.76-29.97-3.93,0-7.62,1.95-10.87,5.38-3.25-3.43-6.94-5.38-10.87-5.38-9.94,0-18.41,12.45-21.76,29.97-8.61,4.23-13.95,10.11-13.95,16.62s5.35,12.39,13.95,16.62c3.35,17.52,11.82,29.97,21.76,29.97,3.93,0,7.62-1.95,10.87-5.38,3.25,3.43,6.94,5.38,10.87,5.38,9.94,0,18.41-12.45,21.76-29.97,8.61-4.23,13.95-10.11,13.95-16.62Zm-35.71-41.41c6.09,0,12.66,8.63,15.96,22.37-5.13-1.81-11.02-3.12-17.4-3.78-1.57-5.57-3.69-10.43-6.22-14.28,2.45-2.77,5.09-4.32,7.65-4.32Zm18.12,41.41c0,4.65-.35,9.02-.97,13.07-4.75,2-10.6,3.56-17.29,4.38,1.09-5.39,1.7-11.28,1.7-17.45s-.61-12.06-1.7-17.45c6.68.82,12.53,2.38,17.29,4.38.62,4.04.97,8.42.97,13.07Zm-28.99,18.12c-1.83,0-3.6-.07-5.35-.17-1.19-5.32-1.9-11.35-1.9-17.94s.71-12.62,1.9-17.94c1.74-.1,3.52-.17,5.35-.17s3.6.07,5.35.17c1.19,5.32,1.9,11.35,1.9,17.94s-.71,12.62-1.9,17.94c-1.74.1-3.52.17-5.35.17Zm3.96,5.09c-1.12,3.58-2.46,6.72-3.96,9.34-1.5-2.61-2.84-5.76-3.96-9.34,1.31.05,2.62.09,3.96.09s2.65-.03,3.96-.09Zm-32.94-23.2c0-4.65.35-9.02.97-13.07,4.75-2,10.6-3.56,17.29-4.38-1.09,5.39-1.7,11.28-1.7,17.45s.61,12.06,1.7,17.45c-6.69-.82-12.53-2.38-17.29-4.38-.62-4.04-.97-8.42-.97-13.07Zm25.03-23.2c1.12-3.58,2.46-6.72,3.96-9.34,1.5,2.61,2.84,5.76,3.96,9.34-1.31-.05-2.62-.09-3.96-.09s-2.65.03-3.96.09Zm-6.91-18.21c2.56,0,5.2,1.54,7.65,4.32-2.53,3.85-4.65,8.71-6.22,14.28-6.37.66-12.26,1.97-17.4,3.78,3.3-13.74,9.87-22.37,15.96-22.37Zm-30.54,41.41c0-3.48,2.85-7.11,7.81-10.21-.37,3.29-.57,6.7-.57,10.21s.2,6.92.57,10.21c-4.97-3.1-7.81-6.73-7.81-10.21Zm30.54,41.41c-6.09,0-12.66-8.63-15.96-22.37,5.13,1.81,11.02,3.12,17.4,3.78,1.57,5.57,3.69,10.43,6.22,14.28-2.45,2.77-5.09,4.32-7.65,4.32Zm21.74,0c-2.56,0-5.2-1.54-7.65-4.32,2.53-3.85,4.65-8.71,6.22-14.28,6.37-.66,12.26-1.97,17.4-3.78-3.3,13.75-9.87,22.37-15.96,22.37Zm22.72-31.2c.37-3.29.57-6.7.57-10.21s-.2-6.92-.57-10.21c4.97,3.1,7.81,6.73,7.81,10.21s-2.85,7.11-7.81,10.21Z"/>
  <g>
    <g>
      <path class="cls-2" d="m199.77,285.71l-2.81-44.59-15.51,42.99h-9.32l-13.42-41.38-3.7,42.99h-10.69l6.11-59.46h13.26l13.74,43.63,15.35-43.63h13.9l4.5,59.46h-11.41Z"/>
      <path class="cls-2" d="m90,256.63c0-20.89,14.22-31.5,30.77-31.5,6.91,0,12.78,1.45,17.2,3.94l-1.77,8.36c-4.34-2.01-9-3.13-15.43-3.13-11.33,0-18.72,8.04-18.72,21.77s7.23,21.53,18.4,21.53c5.79,0,10.12-1.2,14.7-3.78l2.01,8.12c-6.19,3.45-12.13,4.9-19.28,4.9-15.51,0-27.88-9.16-27.88-30.21Z"/>
    </g>
    <path class="cls-2" d="m242.17,282.26l2.73-8.04c4.82,2.41,9.64,3.37,14.14,3.37,6.67,0,10.61-2.97,10.61-7.47s-2.89-6.99-11.41-11.25c-7.8-3.78-13.5-7.79-13.5-16.87,0-9.8,8.44-16.87,20.57-16.87,5.22,0,10.28,1.04,14.3,3.29l-2.33,7.96c-3.45-1.37-7.55-2.09-11.41-2.09-5.38,0-9.48,2.49-9.48,6.51s2.65,6.99,9.16,10.04c10.12,4.82,15.91,9.24,15.91,17.84,0,11.65-9.96,18.16-23.06,18.16-5.54,0-12.05-1.45-16.23-4.58Z"/>
    <path class="cls-2" d="m330.44,264.82c0,14.62-8.19,22.18-21.13,22.18s-21.21-7.55-21.21-22.18,8.19-22.18,21.21-22.18,21.13,7.55,21.13,22.18Zm-11.41,0c0-9.4-3.54-13.5-9.72-13.5s-9.8,4.1-9.8,13.5,3.54,13.5,9.8,13.5,9.72-4.1,9.72-13.5Z"/>
    <path class="cls-2" d="m338.61,225.69l11.33-.81v60.83h-11.33v-60.02Z"/>
    <path class="cls-2" d="m397.27,243.37v42.34h-11.25v-3.45c-3.86,2.81-8.19,4.26-12.45,4.26-8.68,0-13.5-4.34-14.22-12.69-.16-1.85-.16-4.26-.16-6.99v-22.66l11.33-.8v24.59c0,7.15,2.33,9.88,7.55,9.88,2.81,0,5.54-1.21,7.96-3.62v-30.05l11.25-.8Z"/>
    <path class="cls-2" d="m433.67,277.44l1.2,6.99c-3.05,1.45-7.15,2.49-11.81,2.49-7.39,0-10.77-3.7-11.25-9-.24-2.65-.32-4.82-.32-8.92v-17.03h-6.03v-8.19h6.03v-8.84l11.33-2.81v11.65h12.05l-1.12,8.19h-10.93v17.6c0,6.59,1.37,8.6,6.19,8.6,1.53,0,2.81-.24,4.66-.72Z"/>
    <path class="cls-2" d="m442.85,244.01l11.33-.8v42.51h-11.33v-41.7Zm.08-17.68c2.65-.56,8.6-.56,11.25,0v9.88c-2.65.48-8.6.48-11.25,0v-9.88Z"/>
    <path class="cls-2" d="m505.2,264.82c0,14.62-8.19,22.18-21.13,22.18s-21.21-7.55-21.21-22.18,8.19-22.18,21.21-22.18,21.13,7.55,21.13,22.18Zm-11.41,0c0-9.4-3.54-13.5-9.72-13.5s-9.8,4.1-9.8,13.5,3.54,13.5,9.8,13.5,9.72-4.1,9.72-13.5Z"/>
    <path class="cls-2" d="m551.97,262.01v23.7h-11.33v-24.51c0-7.15-2.17-9.88-7.8-9.88-2.73,0-5.38,1.21-7.71,3.38v31.01h-11.33v-41.7l11.33-.8v3.62c3.86-2.65,8.12-4.18,12.45-4.18,8.68,0,13.5,4.02,14.22,12.37.16,1.85.16,4.26.16,6.99Z"/>
    <path class="cls-2" d="m559.23,282.82l2.33-7.39c3.7,2.09,7.31,3.21,11.81,3.21,3.86,0,5.54-1.61,5.54-4.26s-1.69-4.26-7.07-6.59c-6.35-2.81-10.69-5.87-10.69-12.94,0-7.96,6.99-12.21,15.51-12.21,5.22,0,9,1.12,12.13,3.13l-1.69,7.31c-2.89-1.53-5.95-2.25-9.88-2.25-3.29,0-5.06,1.37-5.06,3.7,0,2.65,2.65,4.18,7.07,6.19,7.31,3.13,10.77,6.67,10.77,13.34,0,8.76-7.39,12.78-16.55,12.78-5.71,0-10.69-1.37-14.22-4.02Z"/>
  </g>
</svg>